<svg width="281" height="280" viewBox="0 0 281 280" fill="none" xmlns="http://www.w3.org/2000/svg"><path d="M200.194 240H80.5698C58.4544 240 40.3828 221.905 40.3828 199.813V80.1873C40.3828 58.0717 58.4544 40 80.5698 40H200.194C222.287 40 240.381 58.0717 240.381 80.1873V199.813C240.381 221.905 222.287 240 200.194 240Z" fill="#5177FF"/><path d="M163.918 105.939C162.525 106.419 163.05 108.064 164.512 108.041L172.075 107.881L156.95 148.434L142.671 122.183C138.01 113.616 129.603 108.27 120.122 107.584H115.895H115.872C104.7 108.429 95.3559 115.489 91.5405 126.021L68.237 190.015C68.0771 190.449 68.397 190.906 68.8539 190.906H103.741C104.015 190.906 104.266 190.723 104.357 190.472L119.002 150.17L133.213 176.307C138.536 186.108 148.771 191.729 159.874 190.929C171.001 190.152 180.345 183.184 184.275 172.72L208.56 107.584L214.935 89.8094C215.117 89.2839 214.615 88.7813 214.089 88.9641L163.918 105.939Z" fill="white"/><path opacity="0.3" d="M91.5176 125.993L68.237 190.009C68.0771 190.443 68.397 190.9 68.8539 190.9H103.741C104.015 190.9 104.266 190.717 104.357 190.466L119.002 150.164L133.213 176.301C137.873 184.868 146.258 190.237 155.739 190.923H159.897L115.872 107.578C104.677 108.401 95.3559 115.46 91.5176 125.993Z" fill="#5177FF"/><path d="M102.521 146.745L86.323 190.04C86.1631 190.474 86.4829 190.931 86.9398 190.931H103.755C104.029 190.931 104.28 190.748 104.372 190.497L119.016 150.195L116.069 145.603C113.031 140.828 104.623 141.491 102.521 146.745Z" fill="white"/><path opacity="0.3" d="M173.463 151.962L189.616 109.696C189.959 108.827 189.296 107.891 188.382 107.891H172.07L156.945 148.535L159.893 153.127C162.954 157.879 171.361 157.217 173.463 151.962Z" fill="#5177FF"/></svg>